<svg width="17" height="8" viewBox="0 0 17 8" fill="none" xmlns="http://www.w3.org/2000/svg">
<path opacity="0.35" d="M2.86272 0.440177H12.5826C13.6878 0.440177 14.5838 1.33613 14.5838 2.44133V5.30013C14.5838 6.40534 13.6878 7.30129 12.5826 7.30129H2.86272C1.75751 7.30129 0.861563 6.40534 0.861563 5.30013V2.44133C0.861563 1.33612 1.75751 0.440177 2.86272 0.440177Z" stroke="black" stroke-width="0.571759"/>
<path opacity="0.4" d="M15.4415 3.0127V5.42572C15.927 5.22135 16.2427 4.74593 16.2427 4.21921C16.2427 3.69248 15.927 3.21706 15.4415 3.0127" fill="black"/>
<path d="M1.71924 2.44137C1.71924 1.80982 2.23121 1.29785 2.86276 1.29785H12.5827C13.2142 1.29785 13.7262 1.80982 13.7262 2.44137V5.30017C13.7262 5.93171 13.2142 6.44369 12.5827 6.44369H2.86276C2.23121 6.44369 1.71924 5.93171 1.71924 5.30017V2.44137Z" fill="black"/>
</svg>
