<svg width="32" height="24" viewBox="0 0 32 24" fill="none" xmlns="http://www.w3.org/2000/svg">
<path d="M31.5167 11.8835C31.5167 18.4471 26.1962 23.767 19.6316 23.767H11.8859V0H19.6316C26.1962 0 31.5167 5.32181 31.5167 11.8835Z" fill="url(#paint0_linear_10_362)"/>
<path d="M16.5692 20.5604C16.6762 21.6656 17.0229 22.6875 17.5537 23.5847C17.5874 23.6461 17.625 23.7056 17.6627 23.7669H11.8859V12.543H23.1714C19.1325 12.9351 16.177 16.524 16.5692 20.5604Z" fill="#6400E6"/>
<path d="M23.7701 11.8864C23.7701 12.2284 23.5099 12.5123 23.1695 12.5464C19.4005 12.9245 16.1508 15.0635 14.2541 18.1283C13.3319 19.6205 12.7289 21.3337 12.5457 23.1689C12.5117 23.509 12.2279 23.769 11.886 23.769C11.5439 23.769 11.2602 23.5088 11.2261 23.1685C10.6651 17.565 6.2066 13.1071 0.600515 12.5463C0.260185 12.5122 0 12.2285 0 11.8865C0 11.5445 0.260201 11.2607 0.600544 11.2266C6.20842 10.6659 10.6653 6.20956 11.2262 0.602419C11.2602 0.26212 11.544 0.00195312 11.886 0.00195312C12.228 0.00195312 12.5119 0.262111 12.5459 0.602403C13.1068 6.2078 17.5636 10.6657 23.1696 11.2266C23.5099 11.2607 23.7701 11.5444 23.7701 11.8864Z" fill="url(#paint1_linear_10_362)"/>
<defs>
<linearGradient id="paint0_linear_10_362" x1="21.7013" y1="23.767" x2="21.7013" y2="0" gradientUnits="userSpaceOnUse">
<stop stop-color="#6400E6"/>
<stop offset="0.00798" stop-color="#6501E6"/>
<stop offset="0.21029" stop-color="#8A25EF"/>
<stop offset="0.41265" stop-color="#A741F6"/>
<stop offset="0.61287" stop-color="#BC55FB"/>
<stop offset="0.80988" stop-color="#C861FE"/>
<stop offset="1" stop-color="#CD66FF"/>
</linearGradient>
<linearGradient id="paint1_linear_10_362" x1="5.80563" y1="17.9651" x2="17.9639" y2="5.80524" gradientUnits="userSpaceOnUse">
<stop stop-color="#CD66FF"/>
<stop offset="1" stop-color="#FFB3FF"/>
</linearGradient>
</defs>
</svg>
