<svg width="11" height="8" viewBox="0 0 11 8" fill="none" xmlns="http://www.w3.org/2000/svg">
<path d="M6.13361 1.86957C6.13361 1.5538 6.38959 1.29782 6.70537 1.29782H7.27713C7.5929 1.29782 7.84889 1.5538 7.84889 1.86957V6.44365C7.84889 6.75942 7.5929 7.01541 7.27713 7.01541H6.70537C6.38959 7.01541 6.13361 6.75942 6.13361 6.44365V1.86957Z" fill="black"/>
<path d="M8.9924 0.726056C8.9924 0.410282 9.24839 0.154297 9.56416 0.154297H10.1359C10.4517 0.154297 10.7077 0.410282 10.7077 0.726056V6.44365C10.7077 6.75942 10.4517 7.01541 10.1359 7.01541H9.56416C9.24839 7.01541 8.9924 6.75942 8.9924 6.44365V0.726056Z" fill="black"/>
<path d="M3.27481 3.87073C3.27481 3.55496 3.5308 3.29897 3.84657 3.29897H4.41833C4.7341 3.29897 4.99009 3.55496 4.99009 3.87073V6.44365C4.99009 6.75942 4.7341 7.01541 4.41833 7.01541H3.84657C3.5308 7.01541 3.27481 6.75942 3.27481 6.44365V3.87073Z" fill="black"/>
<path d="M0.416016 5.30013C0.416016 4.98436 0.672001 4.72837 0.987775 4.72837H1.55953C1.87531 4.72837 2.13129 4.98436 2.13129 5.30013V6.44365C2.13129 6.75942 1.87531 7.01541 1.55953 7.01541H0.987775C0.672001 7.01541 0.416016 6.75942 0.416016 6.44365V5.30013Z" fill="black"/>
</svg>
