<svg width="18" height="18" viewBox="0 0 18 18" fill="none" xmlns="http://www.w3.org/2000/svg">
<path d="M7.92548 1.73577C8.2637 0.694849 9.73632 0.694849 10.0745 1.73577L11.283 5.45491C11.4342 5.92042 11.868 6.2356 12.3575 6.2356H16.268C17.3625 6.2356 17.8176 7.63614 16.9321 8.27947L13.7684 10.578C13.3724 10.8657 13.2067 11.3757 13.358 11.8412L14.5664 15.5603C14.9046 16.6013 13.7132 17.4668 12.8278 16.8235L9.6641 14.525C9.26811 14.2373 8.7319 14.2373 8.33591 14.525L5.17222 16.8235C4.28676 17.4668 3.09539 16.6013 3.4336 15.5603L4.64203 11.8412C4.79328 11.3757 4.62758 10.8657 4.23159 10.578L1.0679 8.27946C0.182444 7.63614 0.637509 6.2356 1.73199 6.2356H5.64253C6.132 6.2356 6.5658 5.92042 6.71706 5.45491L7.92548 1.73577Z" fill="#F59E0B"/>
</svg>
