<svg width="32" height="32" viewBox="0 0 32 32" fill="none" xmlns="http://www.w3.org/2000/svg">
<path d="M31.5167 15.8835C31.5167 22.4471 26.1961 27.767 19.6316 27.767H11.8859V4H19.6316C26.1961 4 31.5167 9.32181 31.5167 15.8835Z" fill="url(#paint0_linear_10_279)"/>
<path d="M16.5692 24.5604C16.6762 25.6656 17.0228 26.6875 17.5537 27.5847C17.5874 27.6461 17.625 27.7056 17.6627 27.7669H11.8859V16.543H23.1714C19.1324 16.9351 16.177 20.524 16.5692 24.5604Z" fill="#6400E6"/>
<path d="M23.7701 15.8864C23.7701 16.2284 23.5099 16.5123 23.1695 16.5464C19.4005 16.9245 16.1508 19.0635 14.2541 22.1283C13.3319 23.6205 12.7289 25.3337 12.5457 27.1689C12.5117 27.509 12.2279 27.769 11.886 27.769C11.5439 27.769 11.2602 27.5088 11.2261 27.1685C10.6651 21.565 6.2066 17.1071 0.600515 16.5463C0.260185 16.5122 0 16.2285 0 15.8865C0 15.5445 0.260201 15.2607 0.600544 15.2266C6.20842 14.6659 10.6653 10.2096 11.2262 4.60242C11.2602 4.26212 11.544 4.00195 11.886 4.00195C12.228 4.00195 12.5119 4.26211 12.5459 4.6024C13.1068 10.2078 17.5636 14.6657 23.1696 15.2266C23.5099 15.2607 23.7701 15.5444 23.7701 15.8864Z" fill="url(#paint1_linear_10_279)"/>
<defs>
<linearGradient id="paint0_linear_10_279" x1="21.7013" y1="27.767" x2="21.7013" y2="4" gradientUnits="userSpaceOnUse">
<stop stop-color="#6400E6"/>
<stop offset="0.00798" stop-color="#6501E6"/>
<stop offset="0.21029" stop-color="#8A25EF"/>
<stop offset="0.41265" stop-color="#A741F6"/>
<stop offset="0.61287" stop-color="#BC55FB"/>
<stop offset="0.80988" stop-color="#C861FE"/>
<stop offset="1" stop-color="#CD66FF"/>
</linearGradient>
<linearGradient id="paint1_linear_10_279" x1="5.80563" y1="21.9651" x2="17.9639" y2="9.80524" gradientUnits="userSpaceOnUse">
<stop stop-color="#CD66FF"/>
<stop offset="1" stop-color="#FFB3FF"/>
</linearGradient>
</defs>
</svg>
