<svg width="24" height="24" viewBox="0 0 24 24" fill="none" xmlns="http://www.w3.org/2000/svg">
<path d="M10.9255 4.73577C11.2637 3.69485 12.7363 3.69485 13.0745 4.73577L14.283 8.45491C14.4342 8.92042 14.868 9.2356 15.3575 9.2356H19.268C20.3625 9.2356 20.8176 10.6361 19.9321 11.2795L16.7684 13.578C16.3724 13.8657 16.2067 14.3757 16.358 14.8412L17.5664 18.5603C17.9046 19.6013 16.7132 20.4668 15.8278 19.8235L12.6641 17.525C12.2681 17.2373 11.7319 17.2373 11.3359 17.525L8.17222 19.8235C7.28676 20.4668 6.09539 19.6013 6.4336 18.5603L7.64203 14.8412C7.79328 14.3757 7.62758 13.8657 7.23159 13.578L4.0679 11.2795C3.18244 10.6361 3.63751 9.2356 4.73199 9.2356H8.64253C9.132 9.2356 9.5658 8.92042 9.71706 8.45491L10.9255 4.73577Z" fill="#F59E0B"/>
</svg>
