<svg width="11" height="8" viewBox="0 0 11 8" fill="none" xmlns="http://www.w3.org/2000/svg">
<path d="M5.60996 7.24685C5.91122 7.24685 6.07097 7.11878 6.17139 6.79859L6.68261 5.37148H9.28892L9.79558 6.79859C9.896 7.11878 10.0558 7.24685 10.357 7.24685C10.6765 7.24685 10.8819 7.05474 10.8819 6.75285C10.8819 6.64308 10.8637 6.55159 10.8226 6.42809L8.79596 0.957501C8.65903 0.573279 8.40342 0.385742 7.98805 0.385742C7.59094 0.385742 7.33077 0.573279 7.1984 0.952927L5.16265 6.45096C5.12157 6.56989 5.10331 6.66595 5.10331 6.762C5.10331 7.06389 5.29502 7.24685 5.60996 7.24685ZM6.94279 4.52528L7.97436 1.55213H8.00174L9.03331 4.52528H6.94279ZM0.484069 7.23313C0.721421 7.23313 0.867484 7.10963 0.954209 6.82604L1.28285 5.84261H3.05843L3.3825 6.83061C3.46923 7.11878 3.61986 7.23313 3.86634 7.23313C4.14021 7.23313 4.32735 7.05932 4.32735 6.79859C4.32735 6.69339 4.30453 6.58819 4.26345 6.46926L2.88041 2.76426C2.74804 2.40291 2.51526 2.22909 2.16379 2.22909C1.82602 2.22909 1.5978 2.39833 1.46543 2.76426L0.0823962 6.46926C0.041316 6.57904 0.0184937 6.69796 0.0184937 6.79859C0.0184937 7.06846 0.196508 7.23313 0.484069 7.23313ZM1.50194 5.12906L2.11358 3.22167H2.214L2.83477 5.12906H1.50194Z" fill="black"/>
</svg>
