<svg width="10" height="11" viewBox="0 0 10 11" fill="none" xmlns="http://www.w3.org/2000/svg">
<path d="M0.548584 6.73115C0.548584 9.07821 2.46092 10.9616 4.83921 10.9616C7.21749 10.9616 9.12497 9.07821 9.12497 6.73115C9.12497 6.50171 8.95995 6.3344 8.72212 6.3344C8.494 6.3344 8.34354 6.50171 8.34354 6.73115C8.34354 8.65278 6.78552 10.192 4.83921 10.192C2.89289 10.192 1.33002 8.65278 1.33002 6.73115C1.33002 4.81431 2.89289 3.27988 4.83921 3.27988C5.20808 3.27988 5.55269 3.30857 5.83906 3.37549L4.38782 4.79041C4.31501 4.8669 4.27618 4.9625 4.27618 5.06288C4.27618 5.28277 4.44121 5.44529 4.65962 5.44529C4.78096 5.44529 4.87318 5.40705 4.94113 5.33535L6.94083 3.35637C7.0282 3.2751 7.06217 3.1795 7.06217 3.06956C7.06217 2.96439 7.01849 2.85923 6.94083 2.78275L4.94113 0.784646C4.87318 0.708163 4.77611 0.669922 4.65962 0.669922C4.44121 0.669922 4.27618 0.842007 4.27618 1.06189C4.27618 1.16228 4.31501 1.25788 4.38296 1.33436L5.67403 2.59154C5.42164 2.54374 5.13528 2.51028 4.83921 2.51028C2.46092 2.51028 0.548584 4.38888 0.548584 6.73115Z" fill="black"/>
</svg>
