<svg width="5" height="8" viewBox="0 0 5 8" fill="none" xmlns="http://www.w3.org/2000/svg">
<path d="M0.686076 7.084H3.87542C4.30759 7.084 4.51865 6.86959 4.51865 6.40057V3.94156C4.51865 3.51944 4.34444 3.30168 3.98598 3.26482V2.42059C3.98598 1.15758 3.15849 0.547852 2.28075 0.547852C1.40301 0.547852 0.575521 1.15758 0.575521 2.42059V3.28158C0.247206 3.33183 0.0428467 3.54624 0.0428467 3.94156V6.40057C0.0428467 6.86959 0.253906 7.084 0.686076 7.084ZM1.1149 2.35023C1.1149 1.50935 1.65427 1.06377 2.28075 1.06377C2.90723 1.06377 3.4466 1.50935 3.4466 2.35023V3.26147L1.1149 3.26482V2.35023Z" fill="#3C3C43" fill-opacity="0.6"/>
</svg>
