<svg width="228" height="29" viewBox="0 0 228 29" fill="none" xmlns="http://www.w3.org/2000/svg">
<g clip-path="url(#clip0_10_828)">
<path d="M19.7315 15.1584C19.7315 15.3119 19.7868 15.447 19.9035 15.5637L24.774 20.3237C24.8785 20.4343 25.0136 20.4896 25.1733 20.4896C25.4927 20.4896 25.7383 20.25 25.7383 19.9306C25.7383 19.771 25.6708 19.6358 25.5725 19.5314L21.1012 15.1584L25.5725 10.7853C25.6708 10.6809 25.7383 10.5396 25.7383 10.3861C25.7383 10.0667 25.4927 9.82715 25.1733 9.82715C25.0136 9.82715 24.8785 9.88243 24.774 9.98684L19.9035 14.753C19.7868 14.8635 19.7315 15.0048 19.7315 15.1584Z" fill="#007AFF"/>
<path d="M70.9709 15.1125C70.9709 15.266 70.9157 15.4011 70.799 15.5178L65.9284 20.2778C65.824 20.3884 65.6889 20.4437 65.5292 20.4437C65.2098 20.4437 64.9641 20.2041 64.9641 19.8848C64.9641 19.7251 65.0317 19.5899 65.1299 19.4855L69.6013 15.1125L65.1299 10.7394C65.0317 10.635 64.9641 10.4937 64.9641 10.3402C64.9641 10.0208 65.2098 9.78125 65.5292 9.78125C65.6889 9.78125 65.824 9.83653 65.9284 9.94094L70.799 14.7071C70.9157 14.8176 70.9709 14.9589 70.9709 15.1125Z" fill="#007AFF"/>
<path d="M113.78 17.354C114.044 17.354 114.271 17.1329 114.271 16.8749V10.5672L114.234 9.64587L114.646 10.0819L115.579 11.0769C115.665 11.1752 115.788 11.2243 115.911 11.2243C116.163 11.2243 116.359 11.0401 116.359 10.7883C116.359 10.6593 116.304 10.561 116.212 10.4689L114.136 8.46661C114.013 8.34377 113.909 8.30078 113.78 8.30078C113.657 8.30078 113.553 8.34377 113.424 8.46661L111.348 10.4689C111.255 10.561 111.206 10.6593 111.206 10.7883C111.206 11.0401 111.391 11.2243 111.648 11.2243C111.765 11.2243 111.9 11.1752 111.986 11.0769L112.914 10.0819L113.331 9.64587L113.295 10.5672V16.8749C113.295 17.1329 113.516 17.354 113.78 17.354ZM110.26 22.1632H117.305C118.589 22.1632 119.234 21.5244 119.234 20.2591V14.1295C119.234 12.8642 118.589 12.2255 117.305 12.2255H115.592V13.2143H117.287C117.895 13.2143 118.245 13.546 118.245 14.1848V20.2039C118.245 20.8426 117.895 21.1743 117.287 21.1743H110.273C109.659 21.1743 109.321 20.8426 109.321 20.2039V14.1848C109.321 13.546 109.659 13.2143 110.273 13.2143H111.974V12.2255H110.26C108.977 12.2255 108.332 12.8642 108.332 14.1295V20.2591C108.332 21.5244 108.977 22.1632 110.26 22.1632Z" fill="#007AFF"/>
<path d="M152.989 19.7923C152.989 20.2959 153.321 20.4925 153.683 20.4925C153.892 20.4925 154.07 20.3696 154.304 20.2284C154.979 19.7677 155.815 19.4852 156.668 19.4913C157.553 19.4975 158.431 19.823 159.119 20.4863C159.389 20.732 159.586 20.8118 159.813 20.8118C160.034 20.8118 160.237 20.732 160.501 20.4863C161.189 19.8291 162.067 19.4975 162.958 19.4913C163.811 19.4852 164.641 19.7677 165.316 20.2284C165.55 20.3696 165.728 20.4925 165.943 20.4925C166.299 20.4925 166.631 20.2959 166.631 19.7923V11.4577C166.631 11.3532 166.624 11.2673 166.557 11.1628C166.01 10.2108 164.622 9.40625 162.933 9.40625C161.594 9.40625 160.433 9.9406 159.813 10.6961C159.193 9.9406 158.026 9.40625 156.693 9.40625C154.998 9.40625 153.61 10.2108 153.063 11.1628C153.002 11.2673 152.989 11.3532 152.989 11.4577V19.7923ZM153.978 19.2702V11.5989C154.476 10.8803 155.557 10.3951 156.693 10.3951C157.86 10.3951 158.88 10.8865 159.316 11.6358V19.3746C158.689 18.8771 157.713 18.5025 156.693 18.5025C155.624 18.5025 154.629 18.8034 153.978 19.2702ZM160.304 19.3746V11.6358C160.741 10.8865 161.766 10.3951 162.933 10.3951C164.063 10.3951 165.144 10.8803 165.642 11.5989V19.2702C164.991 18.8034 163.996 18.5025 162.933 18.5025C161.907 18.5025 160.931 18.8771 160.304 19.3746Z" fill="#007AFF"/>
<path d="M200.126 18.7112H201.176V19.6509C201.176 20.9161 201.815 21.5549 203.105 21.5549H209.271C210.549 21.5549 211.194 20.9161 211.194 19.6509V13.4352C211.194 12.17 210.549 11.5312 209.271 11.5312H208.215V10.5915C208.215 9.32626 207.57 8.6875 206.292 8.6875H200.126C198.836 8.6875 198.197 9.32626 198.197 10.5915V16.8072C198.197 18.0724 198.836 18.7112 200.126 18.7112ZM200.138 17.7223C199.524 17.7223 199.186 17.3906 199.186 16.7519V10.6468C199.186 10.008 199.524 9.67635 200.138 9.67635H206.274C206.882 9.67635 207.226 10.008 207.226 10.6468V11.5312H203.105C201.815 11.5312 201.176 12.1638 201.176 13.4352V17.7223H200.138ZM203.117 20.566C202.509 20.566 202.165 20.2344 202.165 19.5956V13.4905C202.165 12.8517 202.509 12.5201 203.117 12.5201H209.253C209.861 12.5201 210.205 12.8517 210.205 13.4905V19.5956C210.205 20.2344 209.861 20.566 209.253 20.566H203.117Z" fill="#007AFF"/>
</g>
<defs>
<clipPath id="clip0_10_828">
<rect width="227.56" height="28.0162" fill="white" transform="translate(0.291687 0.972656)"/>
</clipPath>
</defs>
</svg>
