<svg width="10" height="7" viewBox="0 0 10 7" fill="none" xmlns="http://www.w3.org/2000/svg">
<path fill-rule="evenodd" clip-rule="evenodd" d="M5.14196 1.63374C6.55224 1.6338 7.90859 2.18693 8.93067 3.1788C9.00764 3.25538 9.13066 3.25441 9.20646 3.17663L9.94218 2.41872C9.98056 2.37927 10.002 2.32584 10.0016 2.27024C10.0013 2.21465 9.97931 2.16147 9.94048 2.12249C7.25784 -0.501766 3.02565 -0.501766 0.34301 2.12249C0.30415 2.16144 0.282101 2.2146 0.281743 2.2702C0.281384 2.32579 0.302746 2.37924 0.3411 2.41872L1.07703 3.17663C1.15279 3.25453 1.2759 3.25549 1.35282 3.1788C2.37504 2.18687 3.73154 1.63374 5.14196 1.63374ZM5.16223 3.92183C5.93708 3.92178 6.68428 4.21577 7.25865 4.74666C7.33633 4.822 7.45871 4.82037 7.53444 4.74298L8.26931 3.98506C8.30801 3.94531 8.32948 3.89138 8.32893 3.83534C8.32837 3.7793 8.30583 3.72582 8.26634 3.68688C6.51729 2.02615 3.80865 2.02615 2.05959 3.68688C2.02009 3.72582 1.99754 3.77932 1.99703 3.83538C1.99651 3.89144 2.01805 3.94537 2.05684 3.98506L2.7915 4.74298C2.86723 4.82037 2.9896 4.822 3.06729 4.74666C3.64127 4.21612 4.38788 3.92216 5.16223 3.92183ZM6.6566 5.40117C6.65772 5.45737 6.63608 5.51155 6.59678 5.55092L5.3256 6.86038C5.28834 6.89886 5.23753 6.92052 5.18452 6.92052C5.13151 6.92052 5.08071 6.89886 5.04345 6.86038L3.77206 5.55092C3.73278 5.51152 3.71117 5.45732 3.71234 5.40112C3.7135 5.34492 3.73734 5.29171 3.77821 5.25404C4.59003 4.55315 5.77901 4.55315 6.59084 5.25404C6.63168 5.29174 6.65547 5.34497 6.6566 5.40117Z" fill="black"/>
</svg>
